<?xml version="1.0" encoding="utf-8"?>
<!-- Generator: Adobe Illustrator 26.0.3, SVG Export Plug-In . SVG Version: 6.00 Build 0)  -->
<svg version="1.1" id="Calque_1" xmlns="http://www.w3.org/2000/svg" xmlns:xlink="http://www.w3.org/1999/xlink" x="0px" y="0px"
	 viewBox="0 0 200 200" style="enable-background:new 0 0 200 200;" xml:space="preserve">
<style type="text/css">
	.st0{fill:#FFFFFF;}
</style>
<g>
	<path class="st0" d="M98.4,181.6c-19,0-38-7.4-52.1-20.3c-7.6-7-13.8-15.5-18-24.6c-3.6-7.8-5.9-16.3-6.7-24.7l-18.2-3.9L43.8,63
		l18.8,57.6l-13.5-2.8c1.8,10.1,6.5,19.9,13.3,27.5c4.9,5.4,10.9,9.8,17.3,12.8c6.7,3.1,14.1,4.9,21.3,5.1c0.6,0,1.1,0,1.7,0
		c6.8,0,13.8-1.3,20.2-3.8c6.9-2.7,13.3-6.9,18.7-12.3l3.9-3.9l11.7,11.8l-3.9,3.9c-13.7,13.8-32.9,22.1-52.4,22.7
		C100.3,181.5,99.3,181.6,98.4,181.6L98.4,181.6z"/>
	<path class="st0" d="M137.4,75.4l13.5,2.8c-1.8-10.1-6.5-19.9-13.3-27.5c-4.9-5.4-10.9-9.8-17.3-12.8c-6.7-3.1-14.1-4.9-21.3-5.1
		c-0.6,0-1.1,0-1.7,0c-6.8,0-13.8,1.3-20.2,3.8c-6.9,2.7-13.3,6.9-18.7,12.3l-3.9,3.9L42.6,41.1l3.9-3.9
		c13.7-13.8,32.9-22.1,52.4-22.7c0.8,0,1.8,0,2.7,0c19,0,38,7.4,52.1,20.3c7.6,7,13.8,15.5,18,24.6c3.6,7.8,5.9,16.3,6.7,24.7
		l18.2,3.9L156.2,133L137.4,75.4z"/>
</g>
</svg>
