<?xml version="1.0" encoding="utf-8"?>
<!-- Generator: Adobe Illustrator 26.0.3, SVG Export Plug-In . SVG Version: 6.00 Build 0)  -->
<svg version="1.1" id="Calque_1" xmlns="http://www.w3.org/2000/svg" xmlns:xlink="http://www.w3.org/1999/xlink" x="0px" y="0px"
	 viewBox="0 0 142 80.7" style="enable-background:new 0 0 142 80.7;" xml:space="preserve">
<style type="text/css">
	.st0{fill:#FFFFFF;}
</style>
<g>
	<path class="st0" d="M71.2,78.7c-16.4,0-33.3-6-48.8-17.4C11,53,4.5,44.9,3.8,44l-0.1-0.2c-1.6-2-1.6-4.9,0-6.9l0.1-0.2
		c0.7-0.9,7.3-9,18.6-17.3C37.9,8,54.7,2,71.2,2c16.4,0,33.3,6,48.8,17.4c11.4,8.3,17.9,16.5,18.6,17.3l0.1,0.2c1.6,2,1.6,4.9,0,6.9
		l-0.1,0.2c-0.7,0.9-7.2,9-18.6,17.4C104.5,72.7,87.6,78.7,71.2,78.7z M71.2,13.7c-17.5,0-32.3,8.1-41.6,15
		c-4.2,3.1-8.3,6.6-12,10.3l-1.4,1.4l1.4,1.4c3.7,3.7,7.7,7.2,12,10.3c9.3,6.8,24.2,15,41.6,15c17.5,0,32.3-8.1,41.6-15
		c4.2-3.1,8.3-6.6,12-10.3l1.4-1.4l-1.4-1.4c-3.7-3.7-7.7-7.2-12-10.3C103.5,21.8,88.7,13.7,71.2,13.7z"/>
	<path class="st0" d="M71.2,59.6c-5.1,0-10-2-13.6-5.6c-5.5-5.5-7.1-13.7-4.2-20.8l16.3,5.6L64,22.5c2.3-0.9,4.7-1.4,7.2-1.4
		c5.1,0,10,2,13.6,5.6c7.5,7.5,7.5,19.7,0,27.2C81.1,57.6,76.3,59.6,71.2,59.6z"/>
</g>
</svg>
