<?xml version="1.0" encoding="utf-8"?>
<!-- Generator: Adobe Illustrator 26.0.3, SVG Export Plug-In . SVG Version: 6.00 Build 0)  -->
<svg version="1.1" id="Layer_1" xmlns="http://www.w3.org/2000/svg" xmlns:xlink="http://www.w3.org/1999/xlink" x="0px" y="0px"
	 viewBox="0 0 1562.7 957.3" style="enable-background:new 0 0 1562.7 957.3;" xml:space="preserve">
<style type="text/css">
	.st0{fill:url(#SVGID_1_);}
	.st1{fill:url(#SVGID_00000018203139468079238840000006020809870959298994_);}
	.st2{fill:url(#SVGID_00000176730938327847170270000012986474077652387250_);}
	.st3{fill:url(#SVGID_00000143592934992146584520000009744778766450757815_);}
	.st4{fill:url(#SVGID_00000056399284202265382370000006872880718436728713_);}
	.st5{fill:#023047;}
	.st6{font-family:'Nunito-Bold';}
	.st7{font-size:190.972px;}
	.st8{letter-spacing:-3;}
	.st9{fill:#126782;}
	.st10{font-family:'Nunito-Regular';}
	.st11{font-size:217.3379px;}
	.st12{letter-spacing:2;}
</style>
<g>
	<linearGradient id="SVGID_1_" gradientUnits="userSpaceOnUse" x1="195.6047" y1="660.137" x2="645.019" y2="383.5743">
		<stop  offset="0" style="stop-color:#023047"/>
		<stop  offset="1" style="stop-color:#126782"/>
	</linearGradient>
	<path class="st0" d="M682,504.1c-1.5-23.3-6.1-46-13.6-67.9c-1.5,1.3-3.1,2.5-4.7,3.8c-0.8,0.6-1.6,1.3-2.4,1.9
		c6.6,19.9,10.8,40.8,12.2,62.6c-7.4,2.1-12.8,8.9-12.8,16.9s5.4,14.9,12.8,16.9c-8.4,126-109.4,227.1-235.4,235.4
		c-2.1-7.4-8.9-12.8-16.9-12.8c-8.1,0-14.9,5.4-16.9,12.8c-126-8.4-227.1-109.4-235.4-235.4c7.4-2.1,12.8-8.9,12.8-16.9
		s-5.4-14.9-12.8-16.9c2-29.5,9-57.6,20.2-83.5c-0.1-0.5-0.1-0.9-0.2-1.4c0-0.1,0-0.2-0.1-0.4c-0.2-1.4-0.4-2.8-0.6-4.3
		c-0.4-3.2-0.9-6.5-1.2-9.7c-2.3,4.7-4.5,9.5-6.6,14.3c-11.4,27-18.1,55.3-20,84.5c-8,1.7-13.9,8.8-13.9,17.2s6,15.5,13.9,17.2
		c1.9,29.2,8.6,57.6,20,84.5c13.2,31.1,32,59.1,56,83.1c24,24,52,42.8,83.1,56c27,11.4,55.3,18.1,84.5,20c1.7,8,8.8,13.9,17.2,13.9
		c8.5,0,15.5-6,17.2-13.9c29.2-1.9,57.6-8.6,84.5-20c31.1-13.2,59.1-32,83.1-56c24-24,42.8-52,56-83.1c11.4-27,18.1-55.3,20-84.5
		c8-1.7,13.9-8.8,13.9-17.2S690,505.8,682,504.1z M438.4,260.5c-1.7-8-8.8-13.9-17.2-13.9c-8.5,0-15.5,6-17.2,13.9
		c-29.2,1.9-57.6,8.6-84.5,20c-31.1,13.2-59.1,32-83.1,56c-1.2,1.2-2.4,2.4-3.6,3.6c0.8,0.3,1.6,0.7,2.4,1c0.9,0.4,1.9,0.8,2.8,1.2
		c1,0.4,2,0.8,3,1.3c0.1,0,0.2,0.1,0.3,0.1c42.2-42.7,99.4-70.6,163-74.8c2.1,7.4,8.9,12.8,16.9,12.8c8.1,0,14.9-5.4,16.9-12.8
		c17.9,1.2,35.3,4.3,52,9c0.1,0,0.3,0.1,0.4,0.1c0.1-0.1,0.3-0.2,0.4-0.4c0.6-0.6,1.3-1.2,1.9-1.8c1.6-1.5,3.3-3,4.9-4.5
		C478.5,265.4,458.7,261.8,438.4,260.5z"/>
	
		<linearGradient id="SVGID_00000044163560099695507210000014854019447670450616_" gradientUnits="userSpaceOnUse" x1="647.6884" y1="396.2944" x2="661.4076" y2="731.0419">
		<stop  offset="0" style="stop-color:#023047"/>
		<stop  offset="1" style="stop-color:#126782"/>
	</linearGradient>
	<path style="fill:url(#SVGID_00000044163560099695507210000014854019447670450616_);" d="M688,639.7c-13.1,30.9-31,59.2-53.4,84.2
		c4.4,6.8,3.6,16-2.4,22c-6,6-15.1,6.8-22,2.4c-1-0.7-2-1.5-2.9-2.4c-1.2-1.2-2.2-2.5-2.9-3.9c-3.7-6.7-2.7-15.3,2.9-21
		c5.7-5.7,14.3-6.7,21-2.9c46.7-52.3,75.1-121.3,75.1-196.7c0-35.3-6.2-69.1-17.6-100.6c0.7-0.7,1.5-1.4,2.2-2.2
		c1.5-1.5,3-3,4.4-4.5c12.9,34.2,19.4,70.2,19.4,107.2C711.9,562.4,703.8,602.2,688,639.7z"/>
	<g>
		
			<linearGradient id="SVGID_00000027600333449784971570000002463448699287757984_" gradientUnits="userSpaceOnUse" x1="170.958" y1="326.7548" x2="188.7813" y2="703.7866">
			<stop  offset="0" style="stop-color:#126782"/>
			<stop  offset="1" style="stop-color:#023047"/>
		</linearGradient>
		<path style="fill:url(#SVGID_00000027600333449784971570000002463448699287757984_);" d="M238,742c-0.8,1.4-1.8,2.7-2.9,3.9
			c-0.9,0.9-1.9,1.7-2.9,2.4c-6.8,4.4-16,3.6-22-2.4c-6-6-6.8-15.1-2.4-22c-22.4-25-40.3-53.2-53.4-84.2
			c-15.9-37.5-23.9-77.3-23.9-118.4c0-41.1,8-80.9,23.9-118.4c7.8-18.4,17.3-35.9,28.4-52.3c0.1,2.9,0.2,6,0.4,9.2
			c0.1,1.6,0.2,3.3,0.3,5c0,0.2,0,0.4,0,0.6c-28.2,45.3-44.6,98.8-44.6,156c0,75.5,28.4,144.4,75.1,196.7c6.7-3.7,15.3-2.7,21,2.9
			C240.7,726.7,241.7,735.3,238,742z"/>
		
			<linearGradient id="SVGID_00000013162209510177915260000001801670447609115560_" gradientUnits="userSpaceOnUse" x1="220.3965" y1="318.6049" x2="237.3566" y2="677.3761">
			<stop  offset="0" style="stop-color:#126782"/>
			<stop  offset="1" style="stop-color:#023047"/>
		</linearGradient>
		<path style="fill:url(#SVGID_00000013162209510177915260000001801670447609115560_);" d="M235,321.7c-5.7,5.7-14.3,6.7-21,2.9
			c-1.7,1.9-3.4,3.8-5,5.8h0c-1.1-0.4-2.1-0.8-3.1-1.2c-1.9-0.7-3.6-1.4-5.3-2.1c2.3-2.8,4.8-5.6,7.2-8.4c-4.4-6.8-3.6-16,2.4-22
			c6-6,15.1-6.7,22-2.4c1,0.7,2,1.5,2.9,2.4c1.2,1.2,2.2,2.5,2.9,3.9C241.7,307.4,240.7,316,235,321.7z"/>
	</g>
	
		<linearGradient id="SVGID_00000180365667304457155420000003980184844140131734_" gradientUnits="userSpaceOnUse" x1="633.9115" y1="356.3194" x2="201.9745" y2="691.3474">
		<stop  offset="0" style="stop-color:#023047"/>
		<stop  offset="1" style="stop-color:#126782"/>
	</linearGradient>
	<path style="fill:url(#SVGID_00000180365667304457155420000003980184844140131734_);" d="M473.9,294.8c-17.2-4-34.8-6-52.7-6
		c-31.4,0-61.8,6.1-90.5,18.3c-25.8,10.9-49.1,26.2-69.5,45.5c0.8,0.4,1.6,0.7,2.3,1.1c0.9,0.4,1.8,0.8,2.7,1.2c1,0.5,2,0.9,3,1.4
		c0.1,0.1,0.2,0.1,0.3,0.2c39.9-36.7,93.2-59.2,151.6-59.2c15.8,0,31.2,1.6,46.1,4.8c0.1,0,0.2,0,0.3,0.1c0.1-0.1,0.2-0.3,0.4-0.4
		c0.6-0.7,1.2-1.4,1.8-2.1c0.8-1,1.7-1.9,2.5-2.8c0.6-0.6,1.2-1.3,1.8-1.9C474,294.9,474,294.8,473.9,294.8z M644.1,455
		c-1.6,1.2-3.2,2.4-4.8,3.5c-0.8,0.6-1.7,1.2-2.5,1.9c5.5,19.4,8.4,39.8,8.4,60.9c0,123.5-100.5,224-224,224s-224-100.5-224-224
		c0-15.8,1.6-31.2,4.8-46.1c-0.2-0.4-0.3-0.8-0.5-1.3c-0.1-0.4-0.3-0.9-0.4-1.3c-0.4-1.1-0.7-2.1-1.1-3.2c-0.4-1.1-0.7-2.3-1.1-3.4
		c-0.6-2.1-1.3-4.2-1.9-6.4c-5.5,20-8.3,40.7-8.3,61.8c0,31.4,6.1,61.8,18.3,90.5c11.7,27.7,28.5,52.5,49.8,73.9
		c21.3,21.3,46.2,38.1,73.9,49.8c28.7,12.1,59.1,18.3,90.5,18.3s61.8-6.1,90.5-18.3c27.7-11.7,52.5-28.5,73.9-49.8
		c21.4-21.3,38.1-46.2,49.8-73.9c12.1-28.7,18.3-59.1,18.3-90.5C653.7,498.6,650.4,476.4,644.1,455z M598.4,384.4
		c0.1,0.1,0.1,0.2,0.2,0.3c1.4-0.4,2.3-0.6,2.4-0.6C600.9,384.1,600,384.2,598.4,384.4z M598.4,384.4c0.1,0.1,0.1,0.2,0.2,0.3
		c1.4-0.4,2.3-0.6,2.4-0.6C600.9,384.1,600,384.2,598.4,384.4z"/>
	<path class="st5" d="M765,145.6c0,0-0.1,0.5-0.2,1.5c-1.8,16-18.5,158.6-53.9,235.4c-4.7,10.2-11.4,19.6-19.6,28.7
		c-2.1,2.3-4.3,4.5-6.5,6.8c-5.3,5.3-11.1,10.4-17.3,15.6c-2.3,1.9-4.6,3.8-7,5.7c-5.5,4.4-11.2,8.7-17.1,13.2
		c-2.4,1.8-4.8,3.6-7.2,5.4c-61.3,45.6-143.1,102-196.5,222.7c-0.1,0.1-0.1,0.2-0.2,0.3c-0.2,0.5-0.5,1.1-0.7,1.6
		c0.8,0.6,1.6,1.3,2.3,2.1c2.9,2.9,5.1,6.2,6.5,9.8c0.1,0.3,0.3,0.6,0.4,1c3.9,10.5,1.6,22.8-6.9,31.3c-7,7-16.7,9.8-25.8,8.3
		c-3-0.5-5.9-1.4-8.6-2.8c-2.8-1.4-5.4-3.2-7.7-5.6c-3.7-3.7-6.3-8.2-7.6-13c-0.1-0.5-0.3-1-0.4-1.5c-2.2-9.6,0.5-20.1,8-27.6
		c1.3-1.3,2.8-2.5,4.3-3.5c-0.5-1-1-2-1.4-2.9c-0.1-0.1-0.1-0.2-0.2-0.4c-59-118.2-168.4-138.7-192.2-190.3c-2.2-4.8-4.2-10-6-15.4
		c-0.1-0.4-0.3-0.9-0.4-1.3c-0.8-2.3-1.5-4.7-2.2-7.1c-0.8-2.9-1.6-5.9-2.4-8.9c-3.1-12.4-5.4-25.5-7.2-38.5
		c-0.7-5.2-1.4-10.4-1.9-15.5c-1.5-14.3-2.5-27.9-3.1-39.6c-0.3-5.3-0.4-10.2-0.6-14.5c-0.4-13.5-0.3-22-0.3-22s1.1,0.4,3.3,1.2
		c2.3,0.8,5.6,2.1,9.9,3.8c0,0,0,0,0.1,0c2.5,1,5.3,2.1,8.4,3.3c0,0,0.1,0,0.1,0c6.7,2.7,14.7,5.9,23.6,9.6l0.3,0.1l8.2,3.5
		c0.1,0,0.2,0.1,0.3,0.1c0.7,0.3,1.4,0.6,2.1,0.9c0.1,0,0.2,0.1,0.3,0.1c5.6,2.4,11.3,4.9,17.3,7.6c2.8,1.2,5.5,2.5,8.4,3.8
		c48.6,22.4,103.8,52.8,120.9,81.1c2.4,4,4.6,8.8,6.6,14.3c0.7,1.8,1.3,3.8,1.9,5.8c9.6,31.1,14.2,80.2,16.2,126.3
		c0.1,2.8,0.2,5.6,0.3,8.4c-1.1-2.7-2.2-5.5-3.3-8.2c-13.8-34.3-30.5-68.9-49-94.1c-1.1-1.5-2.2-3-3.3-4.4c-0.7-1.9-1.4-3.8-2.1-5.8
		c-0.4-1.3-0.8-2.6-1.2-3.9c-1-3.6-1.7-7.4-2.2-11.3c-0.1-0.6-0.1-1.3-0.2-1.9c-2.1-21.2,3.1-41,3.4-42.1c-0.2,0.6-2.5,6.6-4.3,15.7
		c0,0.1-0.1,0.3-0.1,0.4c-1.2,5.9-2.1,13.1-2.3,21c0,1.8,0,3.7,0,5.6c0.1,2.8,0.4,5.8,0.9,8.9c0.2,1.4,0.5,2.8,0.8,4.3
		c-1.2-1.5-2.4-3-3.6-4.4c-14-16.9-28.1-31.2-41.1-42.9c-0.7-1.3-1.3-2.6-1.9-3.9c-1.2-2.7-2.3-5.5-3.2-8.4c-0.3-1-0.6-1.9-0.8-2.9
		c-0.1-0.4-0.2-0.8-0.3-1.2c-3.8-15.6-1.8-29.9-1.6-30.8c-0.1,0.5-1.2,4.4-1.7,10.6c0,0.1,0,0.1,0,0.2c-0.4,5-0.4,11.5,0.8,18.7
		c0.3,1.6,0.6,3.4,1.1,5.2c0,0,0,0,0,0c0.1,0.2,0.1,0.5,0.2,0.7c0.3,0.9,0.5,1.9,0.9,2.8c0,0,0,0,0,0c0,0.1,0.1,0.3,0.1,0.4
		c0.1,0.2,0.1,0.5,0.2,0.7c0,0.1,0,0.1,0.1,0.2c0.3,1,0.7,2,1.1,3c-1.2-1.1-2.5-2.1-3.7-3.2c-12-10.3-22.7-18.1-30.9-23.7
		c-1-0.7-2-1.3-2.9-1.9c-0.7-0.5-1.4-0.9-2-1.3c-6.8-4.5-11-6.8-11.5-7.1c0.2,0.2,1.3,0.9,3.1,2.3l0,0c8.5,6.5,33.5,26.6,60.6,57.1
		l0,0c0.3,0.3,0.5,0.6,0.8,0.9c0.9,1,1.8,2,2.7,3.1c0.5,0.6,1,1.2,1.5,1.7c-1.1-0.6-2.2-1.2-3.4-1.7c-4.7-2.4-9.4-4.6-14-6.5
		c-4.5-1.9-8.9-3.5-13-4.6c-1.7-0.5-3.4-0.9-5.1-1.3c-0.4-0.1-0.7-0.2-1.1-0.3c0,0,0,0,0,0c-2.1-0.5-4.2-0.9-6.2-1.3
		c-10.8-2-19.9-2.4-26.2-2.2c-6,0.1-9.6,0.7-9.9,0.7c0.3,0,3.3-0.1,8.2,0.2c6.2,0.4,15.4,1.3,26,3.8c0,0,0,0,0.1,0
		c5.3,1.2,10.9,2.8,16.7,4.8c2.1,0.8,4.2,1.6,6.2,2.4c10.7,4.5,20.6,10.3,30.9,17.1c9.8,12.2,19.6,25.6,28.7,40.2
		c2.3,3.7,4.5,7.5,6.7,11.2c0.2,0.3,0.4,0.7,0.6,1c0,0,0,0.1,0,0.1c0.8,1.4,1.6,2.9,2.4,4.3c-1.5-1.4-3-2.7-4.5-4
		c-6.4-5.6-12.9-10.7-18.9-14.3c-4.7-2.8-9.2-5.2-13.5-7.2c-1.7-0.8-3.3-1.5-4.9-2.1c-0.2-0.1-0.3-0.1-0.5-0.2
		c-7.6-3.1-14-5-18.7-6.1c-2.1-0.5-3.8-0.8-5.1-1.1c-1.7-0.3-2.8-0.4-2.9-0.4c0.4,0.1,7.5,1.9,17.8,6.2c8.3,3.5,18.6,8.6,28.9,15.9
		c11,7.7,20.3,17,29.6,27.6c9.6,19.8,18.7,39.9,26.1,61.2l0.1,0.2c1.6,4.5,3.1,9.1,4.5,13.7c0,0,0,0,0,0
		c4.7,15.5,8.4,31.7,10.5,48.9c0.5,4.1,0.9,8.1,1.1,11.8c0,0.2,0,0.3,0,0.5c0,0.6,0.1,1.2,0.1,1.7c0,0.5,0,1,0.1,1.6
		c1.1-0.2,2.1-0.3,3.2-0.3c2.5-0.1,5.1,0.1,7.6,0.7c-0.2-10.3,0.1-22.9,1.9-37.1c8.6-68.6,33.5-126.5,60.5-182.4
		c13.7-15.6,27.3-29.2,43.5-40.6c21-14.8,41.9-23.6,55-28.2c5-1.8,8.9-2.9,11.2-3.6c1.4-0.4,2.3-0.6,2.4-0.6c-0.2,0-1.1,0.1-2.6,0.4
		c-3.6,0.6-10.7,1.9-20.2,4.9c0,0,0,0,0,0c-4.3,1.3-9.1,3-14.3,5.1c-2.1,0.8-4.2,1.7-6.4,2.7c-7.3,3.2-15.2,7.2-23.4,12.2
		c-8.6,5.2-17.9,12.4-27.2,20.5c-2.4,2.1-4.8,4.3-7.3,6.5c1.4-2.6,2.9-5.2,4.4-7.9c0.1-0.2,0.2-0.3,0.3-0.5c0.2-0.3,0.4-0.6,0.5-1
		c2.9-5.1,5.9-10.1,9-15.1c13.4-21.4,27.7-41.2,42.1-59.1c2.4-1.6,4.8-3.1,7.2-4.6c2.6-1.6,5.1-3.2,7.7-4.7
		c6.3-3.8,12.6-7.3,19-10.4c2.8-1.4,5.6-2.7,8.4-3.9c4-1.8,8.1-3.4,12.2-4.9c0.1,0,0.1,0,0.2-0.1c8.7-3.1,17.2-5.5,25.1-7.3
		c21.5-4.9,39-5.6,46.2-5.7c2.1,0,3.3,0,3.5,0c-0.4-0.1-5.3-0.9-13.7-1.1c-6.3-0.2-14.7,0-24.5,1.1c-2.6,0.3-5.3,0.6-8.1,1
		c-0.7,0.1-1.3,0.2-2,0.3c-7.1,1.1-14.8,2.8-23,5c-2.6,0.7-5.4,1.6-8.2,2.6c-4,1.4-8.1,3-12.3,4.8c-2.8,1.2-5.7,2.5-8.6,3.9
		c-2.8,1.3-5.6,2.7-8.4,4.1c-2.3,1.2-4.7,2.4-7,3.6c1.5-1.7,2.9-3.4,4.4-5.1c0.5-0.6,1-1.1,1.5-1.7c0.3-0.3,0.5-0.6,0.8-0.9
		c1.3-1.4,2.5-2.8,3.7-4.2c1.9-2.2,3.9-4.3,5.8-6.3c27-29.3,51.8-51.1,67.5-64c10.1-8.3,16.4-12.9,17.1-13.4
		c-0.8,0.5-9.2,5.1-22.6,14.2c0,0,0,0,0,0c-0.7,0.4-1.3,0.9-2,1.4c-1,0.7-2,1.4-3,2.1c0,0,0,0,0,0c-11.5,8.1-26,18.9-42.2,32.7
		c-1.7,1.4-3.4,2.9-5.1,4.4c0.7-1.9,1.4-3.7,2-5.6c0-0.1,0.1-0.3,0.1-0.4c0.1-0.2,0.1-0.4,0.2-0.7c1.2-3.7,2.2-7.4,2.8-10.8
		c0.1-0.6,0.2-1.2,0.3-1.8c3.8-23.9-1-42.2-1.4-43.4c0,0.3,0.2,1.7,0.4,3.9c0,0.4,0.1,0.8,0.1,1.2c0.6,7.1,1,20.7-2,35.7
		c-0.3,1.5-0.6,3-1,4.4c-2.1,8.6-5.3,16.4-9.2,24.2c-3.4,3.1-6.8,6.3-10.3,9.6c-2.1,2-4.2,4-6.3,6c-4.8,4.6-9.6,9.5-14.5,14.6
		c-2,2.1-3.9,4.1-5.9,6.3c-8,8.6-16.2,17.8-24.2,27.7c-1.5,1.8-3,3.6-4.4,5.5c0.4-2,0.8-4,1.1-6c0-0.2,0.1-0.3,0.1-0.5
		c0,0,0-0.1,0-0.1c0.7-4.4,1.2-8.7,1.4-12.8c0.3-8.7-0.1-16.9-1-24.4c-0.2-2.2-0.5-4.3-0.8-6.4c-0.6-3.7-1.2-7.2-1.9-10.4
		c-1.4-6.5-2.8-11.8-4-15.6c-0.7-2.3-1.3-4-1.7-5.1c0,0,0,0,0,0c-0.2-0.5-0.3-0.9-0.4-1c0.2,0.8,2.3,8.9,3.9,20.6
		c0.4,3.1,0.8,6.4,1.1,10c0,0.5,0.1,1,0.1,1.5c0.8,9.9,0.9,21.2-0.4,32.6c-1.3,11.1-4.2,21.1-8,30.8c-1.6,2.1-3.3,4.3-4.9,6.5
		c-27.8,37.7-56.1,117.8-76.9,172.4c-1.2,3.2-2.4,6.3-3.6,9.3c0.1-2.2,0.2-4.4,0.2-6.6c0-0.2,0-0.3,0-0.5c0-0.9,0.1-1.8,0.1-2.8
		c2.7-87.3-1.1-200.4,26.8-239.1c5.4-7.5,11.2-14.8,17.4-21.8c2.1-2.4,4.3-4.8,6.5-7.2c4.7-5.1,9.6-10,14.6-14.7
		c0.7-0.6,1.3-1.2,2-1.9c1.7-1.6,3.5-3.2,5.2-4.8c0.7-0.6,1.4-1.2,2.1-1.8c97.3-86.3,237.8-120.9,260.6-126.1
		c0.7-0.1,1.2-0.3,1.7-0.4c0,0,0,0,0,0C764.5,145.7,765,145.6,765,145.6z"/>
</g>
<text transform="matrix(1 0 0 1 740.8323 522.0036)" class="st5 st6 st7 st8">Mon</text>
<text transform="matrix(1 -1.809997e-03 1.809997e-03 1 740.6525 674.5897)" class="st9 st10 st11 st12">potager</text>
</svg>
