<?xml version="1.0" encoding="utf-8"?>
<!-- Generator: Adobe Illustrator 26.0.3, SVG Export Plug-In . SVG Version: 6.00 Build 0)  -->
<svg version="1.1" id="Calque_1" xmlns="http://www.w3.org/2000/svg" xmlns:xlink="http://www.w3.org/1999/xlink" x="0px" y="0px"
	 viewBox="0 0 400 400" style="enable-background:new 0 0 400 400;" xml:space="preserve">
<style type="text/css">
	.st0{fill-rule:evenodd;clip-rule:evenodd;fill:#FFFFFF;}
</style>
<path class="st0" d="M206.7,288.2c-6-68.7,6.3-146.3,75.3-183.2c0,0-43.4,28.8-52.6,109.3C347.7,195.8,393.5,68.7,393.5,68.7
	c-169.3-46.1-196,77.5-200.2,115.4h-0.8c0,0-17.8-106.1-186-73.4c0,0,21.7,130.8,157.8,136.7c-2.5-58.1-42-95.8-42-95.8
	c55.1,30.6,60.8,88.4,61.3,142.9c-8,2.2-16.2,4.3-24.5,6.3c-74.9,18-129.5,12.4-129.5,12.4c42.9,48.4,141.9,23.7,199.9,5.4
	c47-14.8,90.6-23.3,140.8-20.9C310.4,262.5,261.1,273.2,206.7,288.2L206.7,288.2z M322.1,311.3c1.9-0.2,3.9-0.4,5.8-0.5
	c14.6-0.9,28.8,1.1,42.5,9.1c-36.4-1.7-107,33.8-138,10.8l0.8-0.3C260.7,321.8,293.6,314.5,322.1,311.3L322.1,311.3z"/>
</svg>
