<?xml version="1.0" encoding="utf-8"?>
<!-- Generator: Adobe Illustrator 26.0.3, SVG Export Plug-In . SVG Version: 6.00 Build 0)  -->
<svg version="1.1" id="Calque_1" xmlns="http://www.w3.org/2000/svg" xmlns:xlink="http://www.w3.org/1999/xlink" x="0px" y="0px"
	 viewBox="0 0 400 400" style="enable-background:new 0 0 400 400;" xml:space="preserve">
<style type="text/css">
	.st0{fill-rule:evenodd;clip-rule:evenodd;fill:#FFFFFF;}
</style>
<g>
	<path class="st0" d="M263.5,155.7c-22.3-60-102.9-60-125.2,0c-5,13.5-7.6,27.6-8.3,42c26.4,0.1,47.4,1.5,47.4,3.2
		c0,1.7-21.1,3.2-47.6,3.2c-0.3,16.9,1.9,34,5.6,50.5c7.7-0.3,16.9-0.5,26.7-0.5c27.6,0,50,1.4,50,3.2c0,1.8-22.4,3.2-50,3.2
		c-9.3,0-18-0.2-25.4-0.4l-0.1-0.3c4,16.5,9.4,32.2,15.3,46.5c18.1,43.8,49.1,87.7,49.1,87.7s31-43.8,49.1-87.7
		c10.2-24.6,18.9-53.6,21.4-83c-15.7-0.5-26.5-1.6-26.5-2.9c0-1.2,10.9-2.3,26.9-2.9C273,196.5,270.8,175.3,263.5,155.7L263.5,155.7
		z"/>
	<path class="st0" d="M218.9,49.9c0-18.7-7.2-35.1-18-43.8c-10.7,8.7-18,25.1-18,43.8c0,18.7,7.2,35.1,18,43.8
		C211.7,84.9,218.9,68.6,218.9,49.9L218.9,49.9z"/>
	<path class="st0" d="M266.3,96.5c9.1-9.7,11.9-23,8.4-34.9c-12.1-2.9-25.3,0.6-34.4,10.2c-9.1,9.6-11.9,23-8.4,34.9
		C243.9,109.6,257.1,106.1,266.3,96.5L266.3,96.5z"/>
	<path class="st0" d="M133.7,96.5c-9.1-9.6-11.9-23-8.4-34.9c12.1-2.9,25.3,0.6,34.4,10.2c9.1,9.7,11.9,23,8.4,34.9
		C156.1,109.6,142.9,106.1,133.7,96.5L133.7,96.5z"/>
</g>
</svg>
