<?xml version="1.0" encoding="utf-8"?>
<!-- Generator: Adobe Illustrator 26.0.3, SVG Export Plug-In . SVG Version: 6.00 Build 0)  -->
<svg version="1.1" id="Calque_1" xmlns="http://www.w3.org/2000/svg" xmlns:xlink="http://www.w3.org/1999/xlink" x="0px" y="0px"
	 viewBox="0 0 400 400" style="enable-background:new 0 0 400 400;" xml:space="preserve">
<style type="text/css">
	.st0{fill:#FFFFFF;}
</style>
<g>
	<path class="st0" d="M298.2,216.2c-0.6-1.6-2.2-2.7-3.9-2.7c-0.2,0-0.4,0.1-0.5,0.1l-9.9-17.8c0.7-0.8,1.2-1.8,1.2-2.9
		c0-2.3-1.8-4.1-4.1-4.1c-0.4,0-0.8,0.1-1.1,0.2c-1.3,0.4-2.4,1.3-2.8,2.6h-13.5c0.2-2.5,0.2-4,0.2-4.3v-13.2h-124v13.2
		c0,0.2,0,1,0.1,2.3c0.1,1.2,0.2,3.1,0.4,5.2h-6.7c-0.6-1.6-2-2.7-3.9-2.7c-0.6,0-1.2,0.2-1.8,0.4l-0.9-0.9l-7.9-7.9
		c0.3-0.5,0.4-1.1,0.4-1.8c0-2.3-1.8-4.1-4.1-4.1c-1.8,0-3.3,1.2-3.9,2.8h-95v2.7h95c0.6,1.6,2.1,2.7,3.9,2.7c0.6,0,1.2-0.2,1.8-0.4
		l8.7,8.8c-0.3,0.5-0.4,1.1-0.4,1.8c0,1.3,0.6,2.4,1.5,3.2c0.7,0.6,1.6,1,2.6,1c1.8,0,3.3-1.2,3.9-2.8h7c0.6,4.7,1.6,10.7,3.4,17
		c0.4,1.4,0.9,2.8,1.3,4.2H140c-0.6-1.6-2.1-2.8-3.9-2.8c-2.3,0-4.1,1.9-4.1,4.2c0,0.4,0.1,0.9,0.2,1.3l-5,5c-0.7-0.6-1.6-1-2.6-1
		c-2.3,0-4,1.8-4.1,4H16.5v2.8h105c0.8,0.9,1.9,1.5,3.2,1.5c2.3,0,4.1-1.9,4.1-4.1c0-0.3,0-0.5-0.1-0.8l5.3-5.3
		c0.6,0.4,1.3,0.6,2.2,0.6c1.8,0,3.3-1.1,3.9-2.7h6.2c0.1,0.4,0.3,0.8,0.5,1.2c2.4,6.1,5.4,11.6,9,16.3L145,251.2
		c-0.4-0.2-0.8-0.2-1.2-0.2c-2.3,0-4.1,1.8-4.1,4.1c0,1.6,0.9,3,2.3,3.7v16c-1.3,0.6-2.3,2-2.3,3.7c0,0.3,0,0.6,0.1,0.9l-30.7,29.5
		l-1,1l-33.6,32.3l1.9,1.9l34-32.6l1-1l29.9-28.7c0.7,0.5,1.6,0.9,2.5,0.9c2.3,0,4.1-1.8,4.1-4.1c0-1.9-1.4-3.6-3.2-4v-15.3
		c1.8-0.4,3.2-2.1,3.2-4c0-0.9-0.3-1.7-0.8-2.3l10.2-11.8c4.8,5.9,10.5,10.5,17,13.9v8.5c-1.6,0.5-2.7,2-2.7,3.9
		c0,2.3,1.8,4.1,4.1,4.1c0.2,0,0.3-0.1,0.5-0.1l3.2,3.2c-0.3,0.6-0.4,1.2-0.4,1.8c0,1.8,1.1,3.3,2.7,3.9v111
		c0.9,0.2,1.8,0.3,2.7,0.5V280.2c1.6-0.5,2.7-2,2.7-3.9c0-2.3-1.8-4.1-4.1-4.1c-0.6,0-1.2,0.1-1.8,0.4l-2.6-2.6
		c0.6-0.8,1.1-1.7,1.1-2.7c0-1.8-1.2-3.3-2.8-3.9v-7.2c7.4,3.3,15.6,5,24.5,5c6.5,0,12.6-0.9,18.4-2.7v17c-1.6,0.5-2.8,2.1-2.8,3.9
		c0,0.4,0.1,0.9,0.2,1.3l-8.1,8.1c-0.4-0.1-0.8-0.2-1.2-0.2c-2.3,0-4.1,1.8-4.1,4.1c0,1.8,1.1,3.3,2.7,3.9V393
		c0.9-0.1,1.8-0.1,2.7-0.2v-96.3c1.6-0.5,2.7-2.1,2.7-3.9c0-0.8-0.2-1.6-0.6-2.2l7.6-7.6c0.6,0.4,1.4,0.6,2.2,0.6
		c2.3,0,4.1-1.8,4.1-4.1c0-1.8-1.2-3.3-2.7-3.9v-17.9c8.5-3.2,15.9-8.3,22-15.4v9.1c-1.6,0.5-2.7,2-2.7,3.9c0,2.3,1.9,4.1,4.1,4.1
		c0.6,0,1.3-0.2,1.8-0.5l7.6,7c-0.2,0.4-0.3,0.9-0.3,1.4c0,1.8,1.2,3.3,2.8,3.9v84.5c0.9-0.6,1.8-1.2,2.7-1.8v-82.7
		c1.6-0.6,2.7-2.1,2.7-3.9c0-2.3-1.9-4.1-4.1-4.1c-0.8,0-1.6,0.2-2.2,0.6l-7.4-6.9c0.2-0.5,0.4-1.1,0.4-1.7c0-1.8-1.2-3.3-2.8-3.9
		v-12.5c3.6-4.7,6.6-10.2,9-16.4c1.1-2.7,2-5.5,2.9-8.2c2.3-7.9,3.3-15.1,3.8-20.1H277c0.4,1.2,1.5,2.3,2.8,2.6
		c0.3,0.1,0.7,0.2,1.1,0.2c0.2,0,0.3-0.1,0.5-0.1l9.9,17.9c-0.7,0.8-1.1,1.7-1.1,2.9c0,2.3,1.9,4.1,4.1,4.1c1.8,0,3.3-1.2,3.9-2.8
		h67.9c0.1-0.9,0.2-1.8,0.3-2.7H298.2z M115.3,184.1c-1.2,0-2.3-1-2.3-2.3c0-1.2,1-2.3,2.3-2.3c1.3,0,2.3,1,2.3,2.3
		C117.6,183,116.6,184.1,115.3,184.1z M129.6,198.3c-1.3,0-2.3-1-2.3-2.3c0-1.3,1-2.3,2.3-2.3s2.3,1,2.3,2.3
		C131.9,197.3,130.9,198.3,129.6,198.3z M124.6,231.7c-1.3,0-2.3-1-2.3-2.3s1-2.3,2.3-2.3c1.3,0,2.3,1,2.3,2.3
		S125.9,231.7,124.6,231.7z M136.2,222.2c-1.3,0-2.3-1-2.3-2.3c0-1.3,1-2.3,2.3-2.3c1.2,0,2.3,1,2.3,2.3
		C138.4,221.1,137.4,222.2,136.2,222.2z M146.1,278.5c0,1.3-1,2.3-2.3,2.3c-1.3,0-2.3-1-2.3-2.3c0-1.2,1-2.3,2.3-2.3
		C145.1,276.2,146.1,277.3,146.1,278.5z M143.8,257.4c-1.3,0-2.3-1-2.3-2.3c0-1.3,1-2.3,2.3-2.3c1.2,0,2.3,1,2.3,2.3
		C146.1,256.4,145.1,257.4,143.8,257.4z M183.3,274.1c1.2,0,2.3,1,2.3,2.3c0,1.3-1,2.3-2.3,2.3c-1.3,0-2.3-1-2.3-2.3
		C181,275.1,182.1,274.1,183.3,274.1z M178.2,267.3c0,1.2-1,2.3-2.3,2.3s-2.3-1.1-2.3-2.3c0-1.3,1-2.3,2.3-2.3
		S178.2,266,178.2,267.3z M208.2,295c-1.3,0-2.3-1-2.3-2.3c0-1.2,1-2.3,2.3-2.3c1.2,0,2.3,1,2.3,2.3C210.4,294,209.4,295,208.2,295z
		 M223.8,279.4c0,1.2-1,2.3-2.3,2.3s-2.3-1-2.3-2.3c0-1.3,1-2.3,2.3-2.3S223.8,278.1,223.8,279.4z M259.6,265c1.2,0,2.3,1,2.3,2.3
		c0,1.2-1,2.3-2.3,2.3c-1.3,0-2.4-1.1-2.4-2.3C257.2,266,258.3,265,259.6,265z M248.6,255.2c0,1.2-1.1,2.3-2.3,2.3
		c-1.3,0-2.3-1.1-2.3-2.3c0-1.2,1-2.3,2.3-2.3C247.5,252.9,248.6,254,248.6,255.2z M280.9,195.1c-0.4,0-0.8-0.1-1.1-0.3
		c-0.8-0.4-1.2-1.1-1.2-2c0-0.9,0.5-1.6,1.2-2c0.3-0.2,0.7-0.3,1.1-0.3c1.3,0,2.3,1,2.3,2.3C283.2,194.1,282.2,195.1,280.9,195.1z
		 M294.3,219.9c-1.3,0-2.3-1.1-2.3-2.3c0-1.2,1-2.3,2.3-2.3c1.3,0,2.3,1.1,2.3,2.3C296.6,218.8,295.6,219.9,294.3,219.9z"/>
	<path class="st0" d="M96.6,51.7l-52.5,52.5l11.2,11.2c10.3-23.2,26-43.6,45.6-59.4L96.6,51.7z M304.2,51.7l-4.4,4.4
		c19.6,15.8,35.3,36.1,45.6,59.4l11.3-11.3L304.2,51.7z M361.5,170.9c-1.3-5.6-2.9-11.2-4.7-16.6c1.3,8.2,2,16.6,2,25.1
		c0,12.7-1.5,25-4.4,36.8c-0.2,0.9-0.4,1.8-0.6,2.7c-12.4,48.5-47.2,88-92.8,106.9c-0.9,0.4-1.8,0.8-2.7,1.1
		c-15.2,6-31.6,9.7-48.7,10.7c-0.9,0.1-1.8,0.1-2.7,0.1c-2.2,0.1-4.3,0.2-6.4,0.2c-5.3,0-10.5-0.3-15.7-0.8
		c-0.9-0.1-1.8-0.2-2.7-0.3c-26-3-50-12.3-70.5-26.3c-0.8-0.5-1.6-1.1-2.3-1.6c-26.6-18.8-47.1-45.5-58.1-76.8
		c-0.4-0.9-0.7-1.9-1-2.8c-4.9-14.5-7.6-30-8-46.1c-0.1-0.9-0.1-1.8-0.1-2.7c-0.1-0.3-0.1-0.7-0.1-1c0-8.4,0.6-16.8,1.9-25
		c-1.8,5.4-3.4,10.9-4.7,16.5H16.5v74.2h22.8c4.1,18.2,11.4,35.2,21,50.6l-16.1,16.1l52.5,52.5l16.1-16.1
		c15.3,9.6,32.4,16.8,50.6,21v22.7h74.2v-22.7c18.2-4.2,35.2-11.4,50.6-21l16.1,16.1l52.5-52.5l-16.1-16.1
		c9.6-15.4,16.8-32.4,21-50.6h22.7v-74.2H361.5z"/>
	<path class="st0" d="M206,210.4c-3.1,0-5.8,0.2-9-0.3c-5.6-35.8,2.2-88.9-33.3-136c8.8,22.7,17.5,45.4,17.2,70.6
		c-5.3,2.4-10.6,2.6-16,1.8c-10.6-1.6-18.2-7.8-24-16.4c-7.9-11.7-11.6-25-13.9-38.7c-3.2-18.7-7.5-37-15.7-54.1
		c-4.1-8.4-9.1-16.3-16-22.8c-2.1-2-4.6-3.5-6.8-5.5c5.1,0.2,9.9,1.4,14.7,2.9c25.9,7.9,46.3,23.7,63,44.7
		c16.7,21,26.4,45.2,31.9,71.3c0.9,4.1,1.5,8.2,2.2,12.3c0.1,0.7-0.1,1.6,1,2.2c0.8-4.4,1.6-8.8,2.4-13.1c6.4-33,19.5-62.7,43.4-87
		c16.4-16.7,35.6-28.6,58.7-33.8c2-0.5,4.1-0.8,6.2-0.9c-10,7.1-16.6,16.7-21.7,27.5c-3.9,8-6.8,16.4-9.3,24.9
		c-3.4,12-5.1,24.4-7.5,36.6c-2.2,11.5-5.7,22.7-12.2,32.6c-9.2,14.1-22.9,19.9-37.8,16.2c-0.5-0.1-1-0.4-1.8-0.7
		c-1.2-5.2-0.4-10.5,0.3-15.7c2.3-18.2,8-35.4,14.8-52.3c0.3-0.8,0.7-1.6,1.1-2.7c-3.3,2.7-9.6,15.6-15.7,32.1
		c-4.2,11.4-7.5,23-10.2,34.9C209.6,152.7,207.7,198.2,206,210.4z"/>
	<g>
		<g>
			<path class="st0" d="M265,172v13.8c0,0.2,0,1.9-0.2,4.4l-0.2,2.9c-0.5,5.2-1.6,12.8-4,21c-0.8,2.8-1.8,5.7-3,8.5
				c-2.5,6.4-5.7,12.1-9.4,17.1l-2.9,3.5c-6.3,7.4-14.1,12.7-23,16.1l-2.9,1c-6,1.9-12.4,2.8-19.2,2.8c-9.3,0-17.9-1.8-25.6-5.2
				c0,0-2.9-1.2-2.9-1.3c-6.7-3.5-12.7-8.4-17.7-14.5l-1.8-2.4c-3.7-4.9-6.9-10.6-9.4-17c-0.2-0.4-0.4-0.8-0.5-1.3l-1.1-2.9
				c-0.5-1.5-1-2.9-1.4-4.4c-1.9-6.4-2.9-12.5-3.5-17.4l-0.1-0.3l-0.3-2.9c-0.2-2.2-0.3-4.2-0.4-5.4c-0.1-1.3-0.1-2.2-0.1-2.4V172
				H265z"/>
		</g>
	</g>
</g>
</svg>
