<?xml version="1.0" encoding="utf-8"?>
<!-- Generator: Adobe Illustrator 26.0.3, SVG Export Plug-In . SVG Version: 6.00 Build 0)  -->
<svg version="1.1" id="object" xmlns="http://www.w3.org/2000/svg" xmlns:xlink="http://www.w3.org/1999/xlink" x="0px" y="0px"
	 viewBox="0 0 435.5 379.6" style="enable-background:new 0 0 435.5 379.6;" xml:space="preserve">
<style type="text/css">
	.st0{fill:#FFFFFF;}
</style>
<g>
	<path class="st0" d="M385.4,136.2L322,97.6V53.7c0-3.3-2.8-6.1-6.1-6.1h-29c-3.3,0-6.1,2.8-6.1,6.1v18.8l-55-33.4
		c-4.9-3.1-11.2-3.1-16.1,0L50,136.2c-7.3,4.5-9.7,14.1-5.2,21.4c4.5,7.3,14.1,9.7,21.4,5.2l151.7-92.2l151.6,92.2
		c2.5,1.6,5.3,2.3,8.1,2.3c5.2,0,10.4-2.7,13.3-7.5C395.1,150.2,392.8,140.6,385.4,136.2z"/>
	<path class="st0" d="M217.7,82.8l-143.9,90v140.5c0,16.4,13.2,29.5,29.5,29.5h76.4v-96.2h73.9v96.2H330c16.4,0,29.5-13.2,29.5-29.5
		V171.6L217.7,82.8z"/>
</g>
</svg>
